<svg width="99" height="27" viewBox="0 0 99 27" fill="none" xmlns="http://www.w3.org/2000/svg">
<g clip-path="url(#clip0_6274_62616)">
<path d="M11.2426 0.533203H0.399414V26.4651L11.2426 0.533203Z" fill="#F2F2F2"/>
<path d="M18.8721 0.533203H29.7011V26.4651L18.8721 0.533203Z" fill="#F2F2F2"/>
<path d="M15.0573 10.0898L21.9588 26.4641H17.4308L15.3681 21.2509H10.3174L15.0573 10.0898Z" fill="#F2F2F2"/>
<path d="M47.3908 17.0231L48.6694 20.6893C48.7118 20.7811 48.7754 20.8235 48.8884 20.8235H51.3467C51.4809 20.8235 51.5021 20.76 51.4809 20.6257L46.4019 6.51898C46.3807 6.40596 46.3595 6.38477 46.2465 6.38477H43.1948C43.1101 6.38477 43.0606 6.44834 43.0606 6.54017C43.0182 7.28189 42.9547 7.50794 42.8628 7.72692L38.3348 20.6045C38.3136 20.76 38.3631 20.8235 38.4902 20.8235H40.6871C40.8213 20.8235 40.8849 20.7811 40.9344 20.6469L42.1423 17.0231H47.3908ZM42.8416 14.6284C43.5057 12.6223 44.3816 10.051 44.7348 8.58166H44.756C45.194 10.1216 46.2253 13.1732 46.6915 14.6284H42.8416Z" fill="#F2F2F2"/>
<path d="M58.0106 21.0434C59.3316 21.0434 60.7373 20.8033 62.1642 20.1887C62.2773 20.1463 62.2985 20.0969 62.2985 19.9909C62.2561 19.5953 62.2066 19.0231 62.2066 18.5852V5.30489C62.2066 5.22012 62.2066 5.17773 62.1007 5.17773H59.706C59.6142 5.17773 59.5718 5.22012 59.5718 5.33314V9.8329C59.1974 9.79051 58.936 9.76932 58.6252 9.76932C54.7612 9.76932 52.3877 12.3194 52.3877 15.5053C52.3877 19.1997 54.8248 21.0434 58.0106 21.0434ZM59.5718 18.5852C59.1762 18.7123 58.7382 18.7618 58.2932 18.7618C56.5413 18.7618 55.1073 17.7728 55.1073 15.3711C55.1073 13.2448 56.5837 11.9874 58.5404 11.9874C58.936 11.9874 59.2821 12.0298 59.5718 12.1428V18.5852Z" fill="#F2F2F2"/>
<path d="M69.938 9.76953C66.6391 9.76953 64.5977 12.2984 64.5977 15.4207C64.5977 18.211 66.2224 21.0436 69.8886 21.0436C72.9897 21.0436 75.1654 18.762 75.1654 15.3501C75.1654 12.3408 73.3217 9.76953 69.938 9.76953ZM69.8038 11.9876C71.6687 11.9876 72.4599 13.5911 72.4599 15.4207C72.4599 17.6812 71.2943 18.8044 69.938 18.8044C68.2639 18.8044 67.2749 17.3986 67.2749 15.3713C67.2749 13.2874 68.3274 11.9876 69.8038 11.9876Z" fill="#F2F2F2"/>
<path d="M77.6408 5.17773C77.5489 5.17773 77.4854 5.22012 77.4854 5.33314V20.3653C77.4854 20.4289 77.5489 20.5419 77.6408 20.5631C78.6933 20.888 79.7953 21.0434 80.9326 21.0434C84.1891 21.0434 87.3537 19.0231 87.3537 14.9543C87.3537 12.0086 85.3334 9.76932 82.1688 9.76932C81.4412 9.76932 80.763 9.88234 80.1697 10.0801L80.1414 5.35433C80.1414 5.19893 80.099 5.17773 79.9436 5.17773H77.6408ZM84.6482 15.2227C84.6482 17.6598 82.9811 18.8041 81.1798 18.8041C80.8054 18.8041 80.4734 18.783 80.1697 18.6911V12.277C80.5158 12.1428 80.9326 12.0298 81.7025 12.0298C83.4403 12.0298 84.6482 13.1318 84.6482 15.2227Z" fill="#F2F2F2"/>
<path d="M96.2911 16.0141C97.3648 16.0141 98.2478 15.9929 98.5516 15.9223C98.6646 15.9011 98.707 15.8587 98.7282 15.7668C98.7918 15.5267 98.82 15.0251 98.82 14.4106C98.82 12.3196 97.5626 9.76953 94.3132 9.76953C90.9931 9.76953 89.1494 12.475 89.1494 15.5267C89.1494 18.2322 90.5763 21.0436 94.5745 21.0436C96.0721 21.0436 97.0399 20.8035 97.8734 20.4079C97.9582 20.3655 98.0006 20.2949 98.0006 20.1677V18.3381C98.0006 18.2322 97.937 18.211 97.8734 18.2534C97.0399 18.6066 96.1357 18.7832 95.1467 18.7832C92.9075 18.7832 91.8902 17.547 91.8267 16.0141H96.2911ZM91.8267 14.1209C92.0033 13.0472 92.6814 11.8817 94.2002 11.8817C95.8743 11.8817 96.3123 13.2874 96.3123 13.9232C96.3123 13.9443 96.3123 14.0362 96.3123 14.0997C96.2205 14.1209 95.9379 14.1209 95.1043 14.1209H91.8267Z" fill="#F2F2F2"/>
</g>
<defs>
<clipPath id="clip0_6274_62616">
<rect width="98.42" height="25.9319" fill="white" transform="translate(0.399414 0.533203)"/>
</clipPath>
</defs>
</svg>
