<svg width="26" height="31" viewBox="0 0 26 31" fill="none" xmlns="http://www.w3.org/2000/svg">
<path d="M13.1838 7.39329C14.5428 7.39329 16.2464 6.47448 17.2609 5.24941C18.1798 4.13919 18.8497 2.5887 18.8497 1.03822C18.8497 0.82766 18.8306 0.6171 18.7923 0.444824C17.2801 0.50225 15.4616 1.45934 14.3705 2.74184C13.5092 3.71807 12.7243 5.24941 12.7243 6.81903C12.7243 7.04873 12.7626 7.27844 12.7818 7.355C12.8775 7.37414 13.0306 7.39329 13.1838 7.39329ZM8.39831 30.5548C10.2551 30.5548 11.0782 29.3106 13.3943 29.3106C15.7487 29.3106 16.2656 30.5165 18.3329 30.5165C20.3619 30.5165 21.721 28.6406 23.0035 26.803C24.4391 24.6974 25.0325 22.6301 25.0708 22.5344C24.9368 22.4961 21.051 20.9074 21.051 16.4473C21.051 12.5807 24.1137 10.8388 24.286 10.7048C22.2569 7.79526 19.1751 7.7187 18.3329 7.7187C16.055 7.7187 14.1983 9.0969 13.0306 9.0969C11.7673 9.0969 10.1019 7.79526 8.13033 7.79526C4.37854 7.79526 0.569336 10.8962 0.569336 16.7536C0.569336 20.3905 1.98583 24.238 3.72772 26.7265C5.22078 28.8321 6.52242 30.5548 8.39831 30.5548Z" fill="#F5F5F5"/>
</svg>
