<svg width="54" height="14" viewBox="0 0 54 14" fill="none" xmlns="http://www.w3.org/2000/svg">
<g id="Artlist Logo">
<g id="Artlist Logo_2">
<path id="Path" fill-rule="evenodd" clip-rule="evenodd" d="M19.2205 6.20355C18.5236 6.20399 17.8347 6.35152 17.1996 6.63638C16.6381 6.8846 16.186 7.32603 15.9265 7.87928V13.7144H13.4375V4.06829H15.7178V6.12981C15.8835 5.80806 16.0889 5.50795 16.329 5.23638C16.556 4.97931 16.8108 4.74779 17.0887 4.546C17.3423 4.35968 17.6199 4.208 17.9141 4.095C18.1723 3.99417 18.447 3.94128 18.7244 3.93897H19.03C19.0955 3.9387 19.1607 3.94515 19.2248 3.95821L19.2205 6.20355Z" fill="#FFDA2A"/>
<path id="Path_2" fill-rule="evenodd" clip-rule="evenodd" d="M26.8865 13.2178C26.4877 13.3886 26.0792 13.536 25.663 13.6591C25.1705 13.8081 24.6583 13.8827 24.1435 13.8804C23.8144 13.8823 23.4866 13.8388 23.1696 13.7511C22.8776 13.671 22.6061 13.53 22.3733 13.3375C22.1366 13.1369 21.9496 12.8849 21.8266 12.6011C21.6812 12.2545 21.6115 11.8811 21.6222 11.5057V5.96449H20.3438V4.06861H21.6222V0.939453H24.1048V4.06861H26.1494V5.96449H24.1048V10.6775C24.1048 11.0205 24.1951 11.2631 24.3738 11.4042C24.5616 11.5492 24.7945 11.6248 25.0324 11.6179C25.2911 11.618 25.5479 11.5746 25.7921 11.4897C26.0385 11.4031 26.2365 11.3304 26.385 11.2685L26.8865 13.2178Z" fill="#FFDA2A"/>
<path id="Path_3" fill-rule="evenodd" clip-rule="evenodd" d="M27.937 0.276855H30.4207V10.6219C30.4207 10.9778 30.5078 11.2546 30.6811 11.4501C30.871 11.6542 31.1433 11.7626 31.4225 11.7451C31.5887 11.7425 31.7537 11.7177 31.9132 11.6714C32.088 11.6239 32.2586 11.5625 32.4233 11.4875L32.7569 13.3653C32.3851 13.5368 31.9927 13.6603 31.5893 13.7329C31.1926 13.8137 30.789 13.857 30.3841 13.8622C29.6057 13.8622 29.0034 13.6563 28.5773 13.2445C28.1512 12.8327 27.9377 12.247 27.937 11.4875L27.937 0.276855Z" fill="#FFDA2A"/>
<path id="Path_4" fill-rule="evenodd" clip-rule="evenodd" d="M34.0601 13.7145V4.06836H36.5437V13.7145H34.0601Z" fill="#FFDA2A"/>
<path id="Path_5" fill-rule="evenodd" clip-rule="evenodd" d="M36.705 1.50993C36.7228 1.89065 36.5713 2.25991 36.2907 2.51986C36.0248 2.76567 35.6735 2.89972 35.3103 2.8939C34.9414 2.90176 34.5836 2.76775 34.3117 2.51986C34.0311 2.25991 33.8796 1.89065 33.8974 1.50993C33.8974 1.07284 34.0362 0.730851 34.3117 0.480775C34.5839 0.233362 34.9414 0.0994278 35.3103 0.106729C35.6734 0.101472 36.0245 0.235446 36.2907 0.480775C36.5662 0.730851 36.705 1.06856 36.705 1.50993Z" fill="#FFDA2A"/>
<path id="Path_6" fill-rule="evenodd" clip-rule="evenodd" d="M42.2276 13.8983C41.4148 13.8985 40.6073 13.7679 39.8365 13.5115C39.1024 13.2784 38.4221 12.9032 37.835 12.4075L38.7615 10.8611C39.2973 11.2476 39.8797 11.566 40.4951 11.809C41.0295 12.018 41.5984 12.1267 42.1728 12.1296C42.667 12.1296 43.0562 12.0377 43.3403 11.8539C43.6173 11.687 43.7819 11.3846 43.7708 11.0631C43.7797 10.732 43.58 10.4304 43.2704 10.3075C42.742 10.0811 42.1966 9.89631 41.639 9.75497C41.0084 9.58398 40.4704 9.41869 40.0248 9.25909C39.6413 9.13086 39.2788 8.9476 38.9487 8.71512C38.6947 8.53476 38.4901 8.29412 38.3536 8.01512C38.2231 7.71634 38.1599 7.39279 38.1686 7.06719C38.1612 6.60912 38.2595 6.15547 38.4559 5.74093C38.6456 5.35105 38.921 5.00847 39.2619 4.73848C39.6231 4.45201 40.0347 4.23459 40.4757 4.09726C40.9635 3.94735 41.4717 3.87309 41.9823 3.87711C42.6763 3.87232 43.3666 3.97804 44.0269 4.19024C44.6744 4.40502 45.2707 4.74948 45.7788 5.2023L44.778 6.69848C44.3403 6.3621 43.8566 6.08933 43.3414 5.88841C42.9027 5.72273 42.4377 5.63623 41.9683 5.63299C41.5989 5.62062 41.2332 5.70974 40.9116 5.89054C40.6275 6.06261 40.4811 6.3394 40.4811 6.71879C40.4747 6.86793 40.5101 7.01591 40.5833 7.14627C40.6647 7.26938 40.7756 7.3704 40.9062 7.44016C41.092 7.5425 41.2878 7.62593 41.4905 7.68917C41.7316 7.76825 42.0286 7.85161 42.3891 7.93711C43.0562 8.10953 43.6277 8.28123 44.1033 8.45222C44.5188 8.59352 44.9122 8.7921 45.2719 9.04215C45.5534 9.23942 45.7823 9.50165 45.9391 9.80627C46.0898 10.1321 46.1634 10.4877 46.1544 10.8461C46.1544 11.7908 45.8021 12.5361 45.0976 13.0818C44.3931 13.6276 43.4365 13.8998 42.2276 13.8983Z" fill="#FFDA2A"/>
<path id="Path_7" fill-rule="evenodd" clip-rule="evenodd" d="M53.3748 13.2178C52.976 13.3886 52.5674 13.536 52.1512 13.6591C51.6588 13.8081 51.1466 13.8827 50.6318 13.8804C50.3027 13.8823 49.9749 13.8388 49.6579 13.7511C49.3658 13.671 49.0943 13.53 48.8616 13.3375C48.6249 13.1369 48.4379 12.8849 48.3149 12.6011C48.1694 12.2545 48.0998 11.8811 48.1104 11.5057V5.96449H46.832V4.06861H48.1104V0.939453H50.5941V4.06861H52.6333V5.96449H50.5941V10.6775C50.5941 11.0205 50.6845 11.2631 50.8631 11.4042C51.051 11.5492 51.2839 11.6248 51.5217 11.6179C51.7804 11.618 52.0373 11.5746 52.2814 11.4897C52.5279 11.4031 52.7259 11.3304 52.8744 11.2685L53.3748 13.2178Z" fill="#FFDA2A"/>
<path id="Shape" fill-rule="evenodd" clip-rule="evenodd" d="M4.80913 1.50977H7.29279L12.1019 11.8174V13.7282C10.1638 13.8137 8.14507 13.8618 6.05096 13.8618C3.95685 13.8618 1.937 13.8137 0 13.7282V11.8174L4.80913 1.50977ZM2.67305 11.6817C3.80082 11.7095 4.92965 11.7244 6.05096 11.7244C7.17227 11.7244 8.3011 11.7095 9.42887 11.6817L6.05096 4.44015L2.67305 11.6817Z" fill="#FFDA2A"/>
</g>
</g>
</svg>
