<svg width="129" height="23" viewBox="0 0 129 23" fill="none" xmlns="http://www.w3.org/2000/svg">
<g clip-path="url(#clip0_6274_62632)">
<path d="M11.9573 20.4193C7.56165 20.4193 3.81013 16.4318 3.81013 12.084C3.81013 7.75144 7.48379 3.68552 11.926 3.68552C14.8459 3.68552 16.9493 5.09824 18.6605 7.3114H20.8111C20.1676 6.14997 19.4769 5.08232 18.4251 4.25061C16.6196 2.7907 14.2808 1.92773 11.9573 1.92773C6.38487 1.92714 1.84766 6.52689 1.84766 12.068C1.84766 17.6251 6.4474 22.1777 11.9886 22.1777C14.2489 22.1777 16.4621 21.3454 18.2364 19.9486C19.3506 19.0538 20.1357 17.8923 20.889 16.6996H18.7384C17.0437 18.9122 14.8771 20.4193 11.9573 20.4193Z" fill="#F2F2F2"/>
<path d="M34.2485 9.8232C32.8989 8.08074 31.0621 6.98242 28.7858 6.98242C24.7046 6.98242 21.3447 10.2945 21.3447 14.3763C21.3447 18.4582 24.7199 21.8009 28.7858 21.8009C31.1565 21.8009 32.8046 20.8123 34.2485 18.9908V21.4712H36.0228V7.32749H34.2485V9.8232ZM28.6915 20.1682C25.5675 20.1682 23.1031 17.4525 23.1031 14.3911C23.1031 11.3456 25.5516 8.61457 28.6915 8.61457C31.8154 8.61457 34.2485 11.3456 34.2485 14.3911C34.2485 17.4525 31.8 20.1682 28.6915 20.1682Z" fill="#F2F2F2"/>
<path d="M40.0728 2.33594H38.1729V21.4716H40.0728V2.33594Z" fill="#F2F2F2"/>
<path d="M47.2468 19.2274L42.4436 7.32812H40.5596L46.3207 21.4718H48.236L53.9813 7.32812H52.1291L47.2468 19.2274Z" fill="#F2F2F2"/>
<path d="M56.6656 7.32812H54.7656V21.4724H56.6656V7.32812Z" fill="#F2F2F2"/>
<path d="M56.6656 2.33594H54.7656V5.50703H56.6656V2.33594Z" fill="#F2F2F2"/>
<path d="M64.8442 6.98242C63.0546 6.98242 61.7834 7.92443 60.6054 9.18025V7.32749H58.8477V21.4718H60.7157V12.8539C60.7004 10.5776 62.5838 8.61516 64.8755 8.61516C67.7481 8.61516 69.1927 11.1109 69.1927 13.6856V21.4718H70.951V13.6856C70.951 10.012 68.7998 6.98242 64.8442 6.98242Z" fill="#F2F2F2"/>
<path d="M88.579 2.33594L79.9452 13.3085V2.33594H78.0771V21.4716H79.9452V16.213L82.3938 13.1676L88.6262 21.4716H90.9963L83.587 11.6605L90.9963 2.33594H88.579Z" fill="#F2F2F2"/>
<path d="M93.5403 2.33594H91.6875V21.4716H93.5403V2.33594Z" fill="#F2F2F2"/>
<path d="M108.876 10.8908C107.589 8.48893 105.015 6.98242 102.299 6.98242C98.2489 6.98242 94.8271 10.3576 94.8271 14.4076C94.8271 18.4889 98.2808 21.8009 102.331 21.8009C104.261 21.8009 106.161 21.0317 107.558 19.6981C108.406 18.897 108.908 17.8925 109.364 16.8408H107.37C106.365 18.8027 104.592 20.1688 102.3 20.1688C100.903 20.1688 99.5366 19.6037 98.5008 18.6463C97.4332 17.6731 96.963 16.4798 96.7583 15.0671H109.803C109.802 13.5906 109.598 12.1779 108.876 10.8908ZM96.8197 13.4337C97.3848 10.7811 99.4729 8.61457 102.33 8.61457C104.732 8.61457 107.306 10.0898 107.871 13.4337H96.8197Z" fill="#F2F2F2"/>
<path d="M113.053 7.32812H111.185V21.4724H113.053V7.32812Z" fill="#F2F2F2"/>
<path d="M113.053 2.33594H111.185V5.56956H113.053V2.33594Z" fill="#F2F2F2"/>
<path d="M121.262 6.98242C119.442 6.98242 118.17 7.92443 116.977 9.18025V7.32749H115.188V21.4718H117.071V12.8539C117.056 10.5617 118.986 8.61516 121.294 8.61516C124.151 8.61516 125.658 11.1109 125.658 13.6856V21.4718H127.416V13.6856C127.416 10.012 125.234 6.98242 121.262 6.98242Z" fill="#F2F2F2"/>
</g>
<defs>
<clipPath id="clip0_6274_62632">
<rect width="128" height="22.4147" fill="white" transform="translate(0.899414 0.292969)"/>
</clipPath>
</defs>
</svg>
