<svg width="86" height="29" viewBox="0 0 86 29" fill="none" xmlns="http://www.w3.org/2000/svg">
<path fill-rule="evenodd" clip-rule="evenodd" d="M21.4751 10.4389H11.4779V13.4054H18.5678C18.2173 17.5632 14.7625 19.3385 11.4879 19.3385C9.39722 19.3467 7.3908 18.5153 5.91904 17.0308C4.44729 15.5463 3.6335 13.5332 3.66037 11.4433C3.62265 9.34354 4.43258 7.31713 5.9073 5.82151C7.38203 4.3259 9.39722 3.48718 11.4979 3.49469C13.4892 3.49046 15.4041 4.2598 16.8387 5.64035L18.9183 3.48802C18.9183 3.48802 16.2546 0.521484 11.3911 0.521484C5.19917 0.521484 0.40918 5.74713 0.40918 11.3899C0.473387 17.4786 5.45731 22.3654 11.548 22.3117C17.3861 22.3117 21.6554 18.3074 21.6554 12.4077C21.6683 11.7467 21.6079 11.0864 21.4751 10.4389Z" fill="white"/>
<path fill-rule="evenodd" clip-rule="evenodd" d="M24.509 10.3224C25.817 9.01832 27.5899 8.30191 29.4271 8.33509C32.7424 8.33509 36.3676 10.7161 36.3676 15.3481C36.3973 17.2039 35.6808 18.9925 34.382 20.3049C33.0832 21.6173 31.3131 22.3412 29.4765 22.3112C27.6125 22.3523 25.8124 21.624 24.4915 20.2944C23.1706 18.9647 22.4431 17.1486 22.4767 15.2649C22.4684 13.4082 23.201 11.6265 24.509 10.3224ZM33.3474 15.3281C33.3474 12.7073 31.4459 11.0789 29.4685 11.0789L29.4587 11.0723C27.2242 11.0723 25.504 12.8805 25.504 15.3014C25.504 17.7756 27.2506 19.5605 29.4587 19.5605C31.469 19.5605 33.3474 17.8955 33.3474 15.3281Z" fill="white"/>
<path fill-rule="evenodd" clip-rule="evenodd" d="M39.6252 10.3203C40.9335 9.01757 42.7066 8.30196 44.5439 8.33509C47.8589 8.33509 51.4837 10.7138 51.4837 15.3414C51.4609 19.2145 48.3325 22.3357 44.4961 22.3128C40.6598 22.2898 37.5682 19.1314 37.5909 15.2582C37.5836 13.403 38.3168 11.623 39.6252 10.3203ZM48.4639 15.3209C48.4639 12.7027 46.5626 11.0759 44.5854 11.0759H44.5788C42.3447 11.0759 40.6245 12.8823 40.6245 15.3009C40.6245 17.7728 42.371 19.5559 44.5788 19.5559C46.5856 19.5559 48.4639 17.8859 48.4639 15.3209Z" fill="white"/>
<path fill-rule="evenodd" clip-rule="evenodd" d="M52.7139 15.2876C52.7139 11.6063 55.6854 8.33554 59.4644 8.33554H59.461C60.8983 8.29981 62.2806 8.88194 63.25 9.93121V8.75266H66.1981V21.2366C66.1981 26.1428 63.3338 28.48 59.5783 28.48C56.141 28.48 54.2114 26.3746 53.2532 24.3882L55.9869 23.2792C56.5582 24.7558 57.9854 25.7367 59.585 25.7522C61.7994 25.7522 63.2701 24.3187 63.2701 21.9219V20.5514C62.4828 21.4518 61.4242 22.2397 59.4141 22.2397C56.1578 22.2397 52.7139 19.4688 52.7139 15.2876ZM63.4899 15.2914C63.4899 12.6231 61.587 11.0605 59.7344 11.0605V11.0473C57.7511 11.0473 55.8047 12.6363 55.8047 15.3046C55.8047 17.8736 57.6841 19.4891 59.6942 19.4891C61.5937 19.4891 63.4899 17.9597 63.4899 15.2914Z" fill="white"/>
<path fill-rule="evenodd" clip-rule="evenodd" d="M72.7324 15.3135C72.7324 11.1457 75.6746 8.33398 79.1762 8.33398V8.34063C81.9373 8.34063 84.0238 10.2018 84.919 12.4286L85.3995 13.5653L76.1386 17.4339C76.6915 18.4742 77.5833 19.5477 79.525 19.5477C80.9093 19.5713 82.2006 18.8464 82.9115 17.6466L85.2974 19.2519C84.2279 20.6976 82.4343 22.3129 79.5119 22.3129C76.0234 22.3129 72.7324 19.7072 72.7324 15.3135ZM81.8519 12.5031C81.357 11.5485 80.3608 10.9684 79.2948 11.0141H79.2882C77.2972 11.0141 75.4016 13.0947 75.6681 15.1154L81.8519 12.5031Z" fill="white"/>
<path fill-rule="evenodd" clip-rule="evenodd" d="M68.2466 21.899H71.0976V1.3418H68.2373L68.2466 21.899Z" fill="white"/>
</svg>
