<svg width="253" height="59" viewBox="0 0 253 59" fill="none" xmlns="http://www.w3.org/2000/svg">
<path d="M105.414 58.8012H117.53V35.8623H138.207V25.9274H117.53V12.681H142.73V2.26158H105.414V58.8012Z" fill="white"/>
<path d="M154.195 12.8426C157.911 12.8426 160.818 10.0964 160.818 6.46167C160.818 2.74621 157.911 0 154.195 0C150.48 0 147.572 2.74621 147.572 6.46167C147.572 10.0964 150.48 12.8426 154.195 12.8426ZM148.46 58.8012H159.93V17.285H148.46V58.8012Z" fill="white"/>
<path d="M167.786 58.8012H179.174V2.26158H167.786V58.8012Z" fill="white"/>
<path d="M236.219 16.8003C230 16.8003 225.396 19.3042 222.65 23.5851C219.984 18.4965 215.219 16.7196 210.292 16.8003C204.234 16.8811 200.599 19.2235 198.095 22.4543L197.045 17.285H187.111V58.8012H198.499V35.8623C198.499 29.8044 201.73 26.1698 206.657 26.1698C211.665 26.1698 213.926 29.3198 213.926 35.2969V58.8012H225.315V35.7815C225.315 29.6429 228.627 26.1698 233.554 26.1698C238.481 26.1698 240.742 29.3198 240.742 35.2969V58.8012H252.131V34.6507C252.131 21.5658 245.104 16.8003 236.219 16.8003Z" fill="white"/>
<path d="M0.016983 58.8012H12.1326V35.4584H34.5869V58.8012H46.7025V2.26158H34.5869V24.9582H12.1326V2.26158H0.016983V58.8012Z" fill="url(#paint0_linear_12_2167)"/>
<path d="M61.182 12.8426C64.8974 12.8426 67.8052 10.0964 67.8052 6.46167C67.8052 2.74621 64.8974 0 61.182 0C57.4665 0 54.5588 2.74621 54.5588 6.46167C54.5588 10.0964 57.4665 12.8426 61.182 12.8426ZM55.4472 58.8012H66.9167V17.285H55.4472V58.8012Z" fill="url(#paint1_linear_12_2167)"/>
<path d="M98.9228 58.8012V49.1895H93.2688C90.2803 49.1895 89.1495 47.9779 89.1495 45.0701V26.8967H98.6805V17.285H89.1495V5.65396H77.7608V17.285H70.8953V26.8967H77.7608V46.9279C77.7608 54.8434 81.7186 58.8012 89.6341 58.8012H98.9228Z" fill="url(#paint2_linear_12_2167)"/>
<defs>
<linearGradient id="paint0_linear_12_2167" x1="9.54708" y1="68.0106" x2="84.7472" y2="-2.78704" gradientUnits="userSpaceOnUse">
<stop stop-color="#E50093"/>
<stop offset="0.796875" stop-color="#F73400"/>
<stop offset="1" stop-color="#ED8000"/>
</linearGradient>
<linearGradient id="paint1_linear_12_2167" x1="9.54708" y1="68.0106" x2="84.7472" y2="-2.78704" gradientUnits="userSpaceOnUse">
<stop stop-color="#E50093"/>
<stop offset="0.796875" stop-color="#F73400"/>
<stop offset="1" stop-color="#ED8000"/>
</linearGradient>
<linearGradient id="paint2_linear_12_2167" x1="9.54708" y1="68.0106" x2="84.7472" y2="-2.78704" gradientUnits="userSpaceOnUse">
<stop stop-color="#E50093"/>
<stop offset="0.796875" stop-color="#F73400"/>
<stop offset="1" stop-color="#ED8000"/>
</linearGradient>
</defs>
</svg>
