<svg width="209" height="59" viewBox="0 0 209 59" fill="none" xmlns="http://www.w3.org/2000/svg">
<path d="M0.266663 45.8889H10.1V0H0.266663V45.8889Z" fill="url(#paint0_linear_491_1861)"/>
<path d="M57.0086 11.8C51.9608 11.8 48.2241 13.8322 45.9953 17.3067C43.8319 13.1767 39.9641 11.7344 35.9652 11.8C31.0486 11.8656 28.0986 13.7667 26.0664 16.3889L25.2141 12.1933H17.1508V45.8889H26.3941V27.2711C26.3941 22.3544 29.0164 19.4044 33.0152 19.4044C37.0797 19.4044 38.9152 21.9611 38.9152 26.8122V45.8889H48.1586V27.2056C48.1586 22.2233 50.8464 19.4044 54.8452 19.4044C58.8441 19.4044 60.6797 21.9611 60.6797 26.8122V45.8889H69.923V26.2878C69.923 15.6678 64.2197 11.8 57.0086 11.8Z" fill="url(#paint1_linear_491_1861)"/>
<path d="M91.4647 46.2822C100.315 46.2822 106.149 41.3656 107.132 35.2689H98.1513C97.3647 37.76 95.4636 39.1367 91.3991 39.1367C87.0069 39.1367 83.9258 36.3833 83.9258 31.1389V30.8111H107.526V28.3856C107.526 18.5522 101.101 11.8 91.268 11.8C81.1069 11.8 74.2891 18.6178 74.2891 29.1067C74.2891 39.7267 80.7791 46.2822 91.4647 46.2822ZM84.2536 25.37C84.6469 21.4367 87.5313 18.6833 91.3991 18.6833C95.5947 18.6833 97.9547 21.1744 98.4136 25.37H84.2536Z" fill="url(#paint2_linear_491_1861)"/>
<path d="M131.613 12.1933C126.368 12.1933 123.746 14.2256 121.911 17.2411L121.058 12.1933H112.667V45.8889H121.911V29.3689C121.911 24.2556 124.008 20.5844 129.515 20.5844H133.252V12.1933H131.613Z" fill="url(#paint3_linear_491_1861)"/>
<path d="M161.07 16.8478C158.841 13.8978 155.433 11.7344 150.581 11.7344C141.6 11.7344 134.979 18.3556 134.979 28.5822C134.979 38.94 141.6 45.4956 150.647 45.4956C155.367 45.4956 158.71 43.66 160.939 40.8411V46.02C160.939 49.7567 160.153 51.4611 156.547 51.4611H145.271V59H156.613C167.298 59 169.986 53.8867 169.986 46.7411V12.1933H161.857L161.07 16.8478ZM152.679 38.1533C147.631 38.1533 144.419 34.22 144.419 28.6478C144.419 23.0756 147.631 19.2078 152.679 19.2078C157.727 19.2078 160.874 23.1411 160.874 28.7133C160.874 34.2856 157.727 38.1533 152.679 38.1533Z" fill="url(#paint4_linear_491_1861)"/>
<path d="M192.295 46.2822C201.145 46.2822 206.979 41.3656 207.963 35.2689H198.981C198.195 37.76 196.294 39.1367 192.229 39.1367C187.837 39.1367 184.756 36.3833 184.756 31.1389V30.8111H208.356V28.3856C208.356 18.5522 201.931 11.8 192.098 11.8C181.937 11.8 175.119 18.6178 175.119 29.1067C175.119 39.7267 181.609 46.2822 192.295 46.2822ZM185.084 25.37C185.477 21.4367 188.361 18.6833 192.229 18.6833C196.425 18.6833 198.785 21.1744 199.244 25.37H185.084Z" fill="url(#paint5_linear_491_1861)"/>
<defs>
<linearGradient id="paint0_linear_491_1861" x1="0.266666" y1="59" x2="151.628" y2="-67.7454" gradientUnits="userSpaceOnUse">
<stop stop-color="#BF29D7"/>
<stop offset="1" stop-color="#6D00F7"/>
</linearGradient>
<linearGradient id="paint1_linear_491_1861" x1="0.266666" y1="59" x2="151.628" y2="-67.7454" gradientUnits="userSpaceOnUse">
<stop stop-color="#BF29D7"/>
<stop offset="1" stop-color="#6D00F7"/>
</linearGradient>
<linearGradient id="paint2_linear_491_1861" x1="0.266666" y1="59" x2="151.628" y2="-67.7454" gradientUnits="userSpaceOnUse">
<stop stop-color="#BF29D7"/>
<stop offset="1" stop-color="#6D00F7"/>
</linearGradient>
<linearGradient id="paint3_linear_491_1861" x1="0.266666" y1="59" x2="151.628" y2="-67.7454" gradientUnits="userSpaceOnUse">
<stop stop-color="#BF29D7"/>
<stop offset="1" stop-color="#6D00F7"/>
</linearGradient>
<linearGradient id="paint4_linear_491_1861" x1="0.266666" y1="59" x2="151.628" y2="-67.7454" gradientUnits="userSpaceOnUse">
<stop stop-color="#BF29D7"/>
<stop offset="1" stop-color="#6D00F7"/>
</linearGradient>
<linearGradient id="paint5_linear_491_1861" x1="0.266666" y1="59" x2="151.628" y2="-67.7454" gradientUnits="userSpaceOnUse">
<stop stop-color="#BF29D7"/>
<stop offset="1" stop-color="#6D00F7"/>
</linearGradient>
</defs>
</svg>
