<svg width="91" height="21" viewBox="0 0 91 21" fill="none" xmlns="http://www.w3.org/2000/svg">
<path d="M88.335 15.3759C87.9966 15.3771 87.6617 15.4451 87.3496 15.5758C87.0375 15.7065 86.7542 15.8975 86.5161 16.1377C86.2779 16.378 86.0895 16.6628 85.9616 16.9759C85.8337 17.289 85.7688 17.6242 85.7707 17.9624C85.7688 18.3006 85.8337 18.6358 85.9616 18.9489C86.0895 19.2621 86.2779 19.5469 86.5161 19.7871C86.7542 20.0274 87.0375 20.2183 87.3496 20.3491C87.6617 20.4798 87.9966 20.5477 88.335 20.549C89.7494 20.549 90.8993 19.3903 90.8993 17.9624C90.9012 17.6242 90.8363 17.289 90.7084 16.9759C90.5805 16.6628 90.3921 16.378 90.1539 16.1377C89.9158 15.8975 89.6325 15.7065 89.3204 15.5758C89.0083 15.4451 88.6734 15.3771 88.335 15.3759ZM79.8964 13.3783C79.8964 11.4215 78.239 9.83736 76.1943 9.83736C74.1496 9.83736 72.4922 11.4239 72.4922 13.3783C72.4922 15.3326 74.152 16.9167 76.1967 16.9167C78.2414 16.9167 79.8964 15.3326 79.8964 13.3783ZM79.9108 6.49599H83.9954V20.2581H79.9108V19.3783C78.72 20.1998 77.3069 20.6391 75.8599 20.6379C71.8836 20.6379 68.6602 17.3879 68.6602 13.3783C68.6602 9.36861 71.8836 6.11858 75.8599 6.11858C77.3634 6.11858 78.7562 6.58253 79.9108 7.37821V6.49599ZM47.2148 8.28927V6.49839H43.0316V20.2581H47.2245V13.8326C47.2245 11.6643 49.553 10.5008 51.1695 10.5008H51.2176V6.49839C49.5578 6.49839 48.0351 7.21475 47.2148 8.28927ZM36.7941 13.3783C36.7941 11.4215 35.1367 9.83736 33.092 9.83736C31.0473 9.83736 29.3898 11.4239 29.3898 13.3783C29.3898 15.3326 31.0497 16.9167 33.0944 16.9167C35.1391 16.9167 36.7941 15.3326 36.7941 13.3783ZM36.8085 6.49599H40.8955V20.2581H36.8085V19.3783C35.6538 20.1716 34.261 20.6379 32.7576 20.6379C28.7812 20.6379 25.5578 17.3879 25.5578 13.3783C25.5578 9.36861 28.7812 6.11858 32.7576 6.11858C34.261 6.11858 35.6538 6.58253 36.8085 7.37821V6.49599ZM61.4003 6.1282C59.7693 6.1282 58.225 6.63782 57.1906 8.04648V6.49839H53.1228V20.2581H57.2411V13.0273C57.2411 10.9359 58.6315 9.90948 60.3081 9.90948C62.1027 9.90948 63.1371 10.9912 63.1371 12.9984V20.2581H67.2168V11.508C67.2168 8.3061 64.691 6.1282 61.4003 6.1282ZM19.6065 20.2581H23.8836V0.366138H19.6065V20.2581ZM0.819336 20.2629H5.34895V0.361328H0.821741L0.819336 20.2629ZM16.6622 0.361328C16.6622 4.66905 14.9975 8.6787 12.0291 11.6571L18.2883 20.2629H12.6954L5.89501 10.9119L7.65105 9.58496C9.08059 8.51054 10.2389 7.11688 11.0333 5.51535C11.8277 3.91382 12.2363 2.1488 12.2264 0.361328H16.6574H16.6622Z" fill="#F2F2F2"/>
</svg>
