<svg width="32" height="31" viewBox="0 0 32 31" fill="none" xmlns="http://www.w3.org/2000/svg">
<path fill-rule="evenodd" clip-rule="evenodd" d="M0.819336 15.5C0.819336 24.0602 7.75901 31 16.3193 31C24.8798 31 31.8193 24.0602 31.8193 15.5C31.8193 6.93967 24.8798 0 16.3193 0C7.75901 0 0.819336 6.93967 0.819336 15.5ZM3.73906 23.0491L16.3234 17.8405L28.9613 22.9685C26.3368 27.4368 21.5453 30.1827 16.377 30.1961C11.1954 30.2229 6.39054 27.5044 3.73906 23.0491ZM16.1489 0.87793L14.1435 14.162L3.55139 22.7219C1.0075 18.2131 1.03449 12.6949 3.632 8.21306C6.21609 3.7312 10.9805 0.945134 16.1489 0.87793ZM29.1495 22.6288L18.4363 14.3382L16.525 0.878988C19.0565 0.917706 21.535 1.61117 23.719 2.89188C25.9031 4.17259 27.7184 5.99692 28.9883 8.18731C31.5856 12.6422 31.6396 18.1201 29.1495 22.6288Z" fill="#F2F2F2"/>
</svg>
