<svg width="147" height="32" viewBox="0 0 147 32" fill="none" xmlns="http://www.w3.org/2000/svg">
<path d="M6.04447 0.538086H1.08627V5.49629H6.04447V0.538086Z" fill="#F2F2F2"/>
<path d="M5.99604 1.03809H1.03784V5.99629H5.99604V1.03809Z" fill="#F2F2F2"/>
<g clip-path="url(#clip0_1_1690)">
<path d="M146.137 14.5213V11.9618H142.959V7.98276L142.852 8.01571L139.867 8.92913L139.808 8.94701V11.962H135.096V10.2824C135.096 9.50031 135.271 8.90182 135.615 8.50269C135.958 8.10835 136.447 7.90787 137.071 7.90787C137.52 7.90787 137.985 8.0136 138.453 8.2221L138.57 8.27447V5.57897L138.515 5.55869C138.078 5.40186 137.485 5.32288 136.749 5.32288C135.822 5.32288 134.98 5.52462 134.245 5.92446C133.51 6.32486 132.932 6.89645 132.527 7.62319C132.123 8.34909 131.919 9.18748 131.919 10.1153V11.9618H129.705V14.5213H131.919V25.3041H135.096V14.5213H139.808V21.3736C139.808 24.1957 141.139 25.6258 143.764 25.6258C144.196 25.6258 144.65 25.5752 145.113 25.4762C145.585 25.3746 145.906 25.2731 146.096 25.1647L146.138 25.1399V22.5567L146.008 22.6422C145.836 22.7571 145.621 22.851 145.369 22.9208C145.117 22.9919 144.905 23.0275 144.742 23.0275C144.127 23.0275 143.672 22.8618 143.39 22.5348C143.104 22.2048 142.959 21.6277 142.959 20.8204V14.5213H146.137ZM122.61 23.028C121.457 23.028 120.548 22.6456 119.907 21.8924C119.263 21.1354 118.936 20.0561 118.936 18.6848C118.936 17.2701 119.263 16.1628 119.908 15.3924C120.549 14.6271 121.449 14.2386 122.584 14.2386C123.686 14.2386 124.563 14.6096 125.191 15.3418C125.823 16.0779 126.143 17.1763 126.143 18.6075C126.143 20.0564 125.842 21.1693 125.248 21.9138C124.658 22.6526 123.77 23.028 122.61 23.028ZM122.752 11.6404C120.551 11.6404 118.804 12.2851 117.558 13.5565C116.313 14.8281 115.682 16.5878 115.682 18.7872C115.682 20.8762 116.298 22.5565 117.513 23.7806C118.729 25.0052 120.383 25.6255 122.43 25.6255C124.562 25.6255 126.275 24.9718 127.521 23.6828C128.766 22.3951 129.397 20.652 129.397 18.5041C129.397 16.3824 128.805 14.6896 127.637 13.4736C126.468 12.2571 124.824 11.6404 122.752 11.6404ZM110.559 11.6404C109.063 11.6404 107.825 12.0232 106.879 12.778C105.928 13.5372 105.445 14.533 105.445 15.738C105.445 16.3644 105.549 16.9208 105.754 17.3927C105.96 17.8662 106.279 18.283 106.704 18.6329C107.124 18.9799 107.774 19.3434 108.635 19.7133C109.358 20.011 109.898 20.2629 110.241 20.4614C110.576 20.656 110.814 20.8515 110.948 21.042C111.078 21.2284 111.145 21.4835 111.145 21.7983C111.145 22.6947 110.473 23.1309 109.092 23.1309C108.58 23.1309 107.995 23.0239 107.355 22.813C106.72 22.6053 106.12 22.3011 105.577 21.9111L105.445 21.8165V24.8754L105.493 24.8979C105.943 25.1054 106.509 25.2804 107.177 25.4181C107.844 25.5559 108.45 25.626 108.976 25.626C110.6 25.626 111.908 25.2414 112.862 24.4822C113.823 23.7177 114.309 22.6984 114.309 21.4517C114.309 20.5524 114.047 19.7811 113.531 19.1591C113.018 18.5422 112.128 17.9758 110.886 17.4752C109.897 17.0782 109.263 16.7486 109.002 16.4956C108.75 16.2512 108.622 15.9056 108.622 15.4678C108.622 15.0798 108.78 14.769 109.104 14.5173C109.431 14.2643 109.886 14.1356 110.456 14.1356C110.986 14.1356 111.527 14.2192 112.066 14.3831C112.604 14.547 113.077 14.7664 113.471 15.0349L113.601 15.1236V12.222L113.551 12.2006C113.187 12.0445 112.707 11.9109 112.124 11.8025C111.544 11.6948 111.017 11.6404 110.559 11.6404ZM97.1623 23.028C96.0093 23.028 95.0999 22.6456 94.4593 21.8924C93.8145 21.1354 93.4884 20.0564 93.4884 18.6848C93.4884 17.2701 93.8149 16.1628 94.46 15.3924C95.1006 14.6271 96.0009 14.2386 97.1368 14.2386C98.238 14.2386 99.115 14.6096 99.7433 15.3418C100.375 16.0779 100.695 17.1763 100.695 18.6075C100.695 20.0564 100.394 21.1693 99.7995 21.9138C99.2094 22.6526 98.3226 23.028 97.1623 23.028ZM97.3039 11.6404C95.1032 11.6404 93.3556 12.2851 92.1104 13.5565C90.8653 14.8281 90.2336 16.5878 90.2336 18.7872C90.2336 20.877 90.8502 22.5565 92.0658 23.7806C93.2813 25.0052 94.9354 25.6255 96.982 25.6255C99.1144 25.6255 100.827 24.9718 102.073 23.6828C103.318 22.3951 103.949 20.652 103.949 18.5041C103.949 16.3824 103.357 14.6896 102.188 13.4736C101.02 12.2571 99.376 11.6404 97.3039 11.6404ZM85.4108 14.2724V11.9618H82.2723V25.3038H85.4108V18.4789C85.4108 17.3183 85.6739 16.3649 86.1931 15.6448C86.7057 14.9333 87.3888 14.5727 88.2228 14.5727C88.5055 14.5727 88.8229 14.6193 89.1665 14.7115C89.5067 14.8032 89.7531 14.9027 89.8983 15.0075L90.0303 15.1031V11.939L89.9794 11.9172C89.6872 11.793 89.2737 11.7304 88.7505 11.7304C87.9618 11.7304 87.2561 11.9838 86.6515 12.4827C86.1209 12.9213 85.7374 13.5226 85.4441 14.2724H85.4108ZM76.652 11.6404C75.2122 11.6404 73.9279 11.9492 72.8355 12.5578C71.7409 13.1678 70.8944 14.0387 70.3184 15.1461C69.745 16.2509 69.4538 17.5414 69.4538 18.9805C69.4538 20.2411 69.7361 21.3979 70.294 22.4175C70.8523 23.4388 71.6424 24.2377 72.6425 24.7919C73.6413 25.3453 74.7956 25.6259 76.0736 25.6259C77.5651 25.6259 78.8385 25.3277 79.8595 24.7397L79.9008 24.716V21.8407L79.7689 21.937C79.3064 22.2739 78.7896 22.5428 78.2334 22.7365C77.6787 22.9301 77.173 23.028 76.7296 23.028C75.4981 23.028 74.5095 22.6426 73.7919 21.8829C73.0728 21.1223 72.7081 20.0541 72.7081 18.71C72.7081 17.3575 73.0884 16.2619 73.8378 15.4535C74.5849 14.6475 75.5754 14.2386 76.7814 14.2386C77.8129 14.2386 78.8181 14.5879 79.7691 15.2778L79.9008 15.3734V12.3438L79.8583 12.3198C79.5004 12.1195 79.0123 11.9541 78.4063 11.8286C77.8029 11.7035 77.2127 11.6404 76.652 11.6404ZM67.2923 11.962H64.1539V25.3038H67.2923V11.962ZM65.7552 6.27826C65.2387 6.27826 64.7881 6.4541 64.418 6.80255C64.0463 7.15198 63.8578 7.59194 63.8578 8.11116C63.8578 8.62222 64.0441 9.05415 64.4122 9.39429C64.778 9.73345 65.2299 9.90535 65.7554 9.90535C66.2806 9.90535 66.7342 9.73345 67.1044 9.39486C67.4769 9.05415 67.6658 8.62236 67.6658 8.11116C67.6658 7.6101 67.482 7.17465 67.1197 6.81663C66.7578 6.45931 66.2985 6.27826 65.7552 6.27826ZM57.9246 10.9776V25.3038H61.1275V6.68668H56.6946L51.06 20.5149L45.592 6.68668H40.9785V25.3036H43.9884V10.9762H44.0918L49.8659 25.3038H52.1373L57.8213 10.9776H57.9246Z" fill="#F2F2F2"/>
<path d="M15.3634 15.2296H0.599365V0.465576H15.3634V15.2296Z" fill="#F2F2F2"/>
<path d="M31.6645 15.2316H16.9007V0.467529H31.6645V15.2316Z" fill="#F2F2F2"/>
<path d="M15.363 31.5376H0.599365V16.7737H15.363V31.5376Z" fill="#F2F2F2"/>
<path d="M31.6645 31.5376H16.9007V16.7737H31.6645V31.5376Z" fill="#F2F2F2"/>
</g>
<defs>
<clipPath id="clip0_1_1690">
<rect width="145.538" height="31.0869" fill="white" transform="translate(0.599365 0.456543)"/>
</clipPath>
</defs>
</svg>
