<svg width="70" height="29" viewBox="0 0 70 29" fill="none" xmlns="http://www.w3.org/2000/svg">
<path fill-rule="evenodd" clip-rule="evenodd" d="M69.4094 14.9761C69.4094 10.0865 67.0415 6.22726 62.5134 6.22726C57.9687 6.22726 55.2169 10.0857 55.2169 14.937C55.2169 20.6865 58.4639 23.5894 63.1241 23.5894C65.3973 23.5894 67.1163 23.0743 68.4149 22.3482V18.5279C67.1163 19.1777 65.6266 19.5781 63.7356 19.5781C61.8828 19.5781 60.2402 18.9284 60.03 16.6751H69.3687C69.3687 16.4259 69.4069 15.4339 69.4069 14.9752L69.4094 14.9761ZM59.9818 13.1623C59.9818 11.0038 61.2995 10.1065 62.5034 10.1065C63.6683 10.1065 64.9104 11.0038 64.9104 13.1623H59.9818ZM47.8539 6.22892C45.982 6.22892 44.7798 7.10712 44.1101 7.71862L43.8609 6.53467H39.651V28.8055L44.4259 27.7935L44.445 22.388C45.1329 22.8849 46.1449 23.5911 47.8265 23.5911C51.2455 23.5911 54.3586 20.8493 54.3586 14.7858C54.3395 9.24655 51.1881 6.22809 47.8448 6.22809L47.8539 6.22892ZM46.7074 19.3895C45.5807 19.3895 44.9127 18.9882 44.4533 18.4922L44.4342 11.4051C44.931 10.8509 45.6181 10.4696 46.7074 10.4696C48.4455 10.4696 49.6486 12.4179 49.6486 14.9196C49.6486 17.4786 48.4646 19.3895 46.7074 19.3895ZM33.0815 5.10229L37.8755 4.07204V0.195312L33.0815 1.20728V5.10229ZM33.0815 6.55378H37.8755V23.2662H33.0815V6.55378ZM27.9427 7.96622L27.637 6.55378H23.511V23.2679H28.2859V11.9402C29.4125 10.4696 31.3226 10.7371 31.915 10.9473V6.55461C31.3035 6.3253 29.0693 5.90489 27.9419 7.96705L27.9427 7.96622ZM18.393 2.39955L13.7327 3.39407L13.7136 18.6933C13.7136 21.5198 15.834 23.6019 18.6605 23.6019C20.2266 23.6019 21.3724 23.3153 22.003 22.9705V19.0929C21.3915 19.3422 18.3739 20.2195 18.3739 17.393V10.6224H22.003V6.55378H18.3722L18.393 2.39955ZM5.48162 11.396C5.48162 10.6507 6.09312 10.3657 7.10509 10.3657C8.75694 10.4009 10.3781 10.819 11.8409 11.587V7.10795C10.2557 6.47651 8.68951 6.22975 7.10509 6.22975C3.22753 6.22975 0.649414 8.25452 0.649414 11.6352C0.649414 16.907 7.90769 16.0661 7.90769 18.3402C7.90769 19.2184 7.14331 19.505 6.07401 19.505C4.48875 19.505 2.46398 18.8553 0.859618 17.9762V22.521C2.63597 23.2854 4.43226 23.6011 6.07401 23.6011C10.0471 23.6011 12.7789 21.6336 12.7789 18.2147C12.7598 12.5234 5.48245 13.5354 5.48245 11.396H5.48162Z" fill="#F2F2F2"/>
</svg>
