<svg width="112" height="17" viewBox="0 0 112 17" fill="none" xmlns="http://www.w3.org/2000/svg">
<g clip-path="url(#clip0_6274_62591)">
<path fill-rule="evenodd" clip-rule="evenodd" d="M0.649414 1.44727V3.49481H3.97373L10.4793 15.8206H18.4848L24.9903 3.47435L28.3141 3.45318L28.3213 1.44727H18.3763V3.46019H21.0247L16.4308 12.2228L11.4626 3.49075L15.0864 3.47435L15.08 1.44727H0.649414Z" fill="#F2F2F2"/>
<path fill-rule="evenodd" clip-rule="evenodd" d="M64.8086 1.44727V3.49481H68.1319L74.6376 15.8206H82.6434L89.149 3.47435L92.4731 3.45318L92.4791 1.44727H82.5359V3.46019H85.1832L80.5895 12.2228L75.6207 3.49075L79.2455 3.47435L79.2387 1.44727H64.8086Z" fill="#F2F2F2"/>
<path fill-rule="evenodd" clip-rule="evenodd" d="M48.4512 1.44741V3.49495H51.7749L51.7805 13.5579H48.2764V15.8008L51.7829 15.8209H68.379V9.13029H66.2172C66.0987 12.6727 63.057 13.5626 61.7758 13.5626C60.6018 13.5626 58.3271 13.558 58.3271 13.558V3.49089L61.6009 3.47435L61.5965 1.44727H48.4512V1.44741Z" fill="#F2F2F2"/>
<path fill-rule="evenodd" clip-rule="evenodd" d="M37.1137 13.9808C35.1219 13.9808 33.5081 11.5705 33.5081 8.59567C33.5081 5.62016 35.1219 3.20802 37.1137 3.20802C39.1049 3.20802 40.7192 5.62016 40.7192 8.59567C40.7192 11.5705 39.1049 13.9808 37.1137 13.9808ZM37.2602 1.03516C31.6103 1.03516 27.0303 4.434 27.0303 8.62497C27.0303 12.8162 31.6101 16.2146 37.2602 16.2146C42.9097 16.2146 47.4903 12.8162 47.4903 8.62497C47.4903 4.434 42.9097 1.03516 37.2602 1.03516Z" fill="#F2F2F2"/>
<path fill-rule="evenodd" clip-rule="evenodd" d="M101.273 13.9416C99.2819 13.9416 97.6683 11.4914 97.6683 8.46734C97.6683 5.44445 99.2821 2.99362 101.273 2.99362C103.264 2.99362 104.878 5.44445 104.878 8.46734C104.878 11.4912 103.264 13.9416 101.273 13.9416ZM101.42 0.785156C95.769 0.785156 91.1904 4.23936 91.1904 8.49874C91.1904 12.758 95.7689 16.2115 101.42 16.2115C107.069 16.2115 111.649 12.758 111.649 8.49874C111.649 4.23936 107.069 0.785156 101.42 0.785156Z" fill="#F2F2F2"/>
</g>
<defs>
<clipPath id="clip0_6274_62591">
<rect width="111" height="15.4286" fill="white" transform="translate(0.649414 0.785156)"/>
</clipPath>
</defs>
</svg>
